<svg width="240" height="216" viewBox="0 0 240 216" fill="none" xmlns="http://www.w3.org/2000/svg">
<g clip-path="url(#clip0_7_2924)">
<path d="M122.911 0.4695L115.102 2.48895L18.8913 27.369L11.0821 29.3885C7.29163 30.3733 4.04548 32.8256 2.05582 36.2075C0.0661595 39.5894 -0.504511 43.6246 0.469006 47.4278L34.3313 179.105C35.3134 182.906 37.7589 186.161 41.1313 188.156C44.5038 190.152 48.5277 190.724 52.3204 189.748L52.3406 189.743L164.129 160.834L164.149 160.829C167.94 159.844 171.186 157.392 173.176 154.01C175.165 150.628 175.736 146.593 174.763 142.789L140.9 11.1123C139.918 7.31124 137.473 4.056 134.1 2.06078C130.728 0.0655489 126.704 -0.506727 122.911 0.4695Z" fill="#DFDFDF"/>
<path d="M123.973 4.59911L114.724 6.99102L21.3937 31.1263L12.1444 33.5181C9.44509 34.2194 7.13341 35.9658 5.71652 38.3741C4.29963 40.7824 3.89324 43.6559 4.5865 46.3643L38.4488 178.041C39.1481 180.748 40.8896 183.066 43.2912 184.487C45.6928 185.908 48.5584 186.316 51.2593 185.62L51.2794 185.615L163.068 156.707L163.088 156.701C165.788 156 168.099 154.254 169.516 151.845C170.933 149.437 171.339 146.564 170.646 143.855L136.784 12.1781C136.084 9.4713 134.343 7.15319 131.941 5.73235C129.54 4.3115 126.674 3.90395 123.973 4.59911Z" fill="white"/>
<path d="M116.989 47.2407L60.4378 61.8648C59.8062 62.0281 59.1358 61.9332 58.574 61.6008C58.0122 61.2684 57.6051 60.7259 57.4422 60.0925C57.2793 59.4591 57.374 58.7868 57.7054 58.2234C58.0369 57.66 58.5779 57.2518 59.2095 57.0885L115.761 42.4643C116.392 42.3016 117.062 42.397 117.623 42.7294C118.185 43.0618 118.591 43.6042 118.754 44.2372C118.917 44.8702 118.823 45.5421 118.492 46.1053C118.161 46.6685 117.62 47.0768 116.989 47.2407Z" fill="#DFDFDF"/>
<path d="M128.886 52.7588L62.5111 69.9234C61.8795 70.0867 61.209 69.9917 60.6472 69.6594C60.0854 69.327 59.6783 68.7844 59.5154 68.1511C59.3525 67.5177 59.4472 66.8453 59.7787 66.282C60.1101 65.7186 60.6512 65.3104 61.2828 65.147L127.658 47.9824C128.289 47.8191 128.96 47.9141 129.522 48.2464C130.083 48.5788 130.491 49.1214 130.653 49.7547C130.816 50.3881 130.722 51.0605 130.39 51.6238C130.059 52.1872 129.518 52.5954 128.886 52.7588Z" fill="#DFDFDF"/>
<path d="M126.278 83.3603L69.7269 97.9845C69.4142 98.0653 69.0886 98.0837 68.7688 98.0384C68.449 97.9931 68.1412 97.885 67.863 97.7205C67.5849 97.5559 67.3417 97.338 67.1475 97.0792C66.9534 96.8204 66.8119 96.5258 66.7312 96.2122C66.6506 95.8985 66.6323 95.5721 66.6775 95.2514C66.7227 94.9307 66.8304 94.622 66.9945 94.3431C67.1586 94.0641 67.3759 93.8203 67.634 93.6256C67.8921 93.4309 68.1859 93.289 68.4986 93.2081L125.05 78.584C125.363 78.5031 125.688 78.4848 126.008 78.5301C126.328 78.5754 126.636 78.6834 126.914 78.848C127.192 79.0126 127.435 79.2305 127.629 79.4893C127.823 79.7481 127.965 80.0427 128.046 80.3563C128.126 80.6699 128.144 80.9964 128.099 81.3171C128.054 81.6378 127.946 81.9464 127.782 82.2254C127.618 82.5043 127.401 82.7481 127.143 82.9429C126.885 83.1376 126.591 83.2795 126.278 83.3603Z" fill="#DFDFDF"/>
<path d="M138.175 88.8799L71.8001 106.044C71.4874 106.125 71.1618 106.144 70.842 106.098C70.5222 106.053 70.2144 105.945 69.9363 105.78C69.6581 105.616 69.415 105.398 69.2208 105.139C69.0266 104.88 68.8851 104.586 68.8045 104.272C68.7238 103.959 68.7056 103.632 68.7507 103.311C68.7959 102.991 68.9036 102.682 69.0677 102.403C69.2319 102.124 69.4491 101.88 69.7072 101.686C69.9653 101.491 70.2591 101.349 70.5718 101.268L136.947 84.1035C137.578 83.9402 138.249 84.0352 138.811 84.3675C139.372 84.6999 139.78 85.2425 139.942 85.8758C140.105 86.5092 140.011 87.1816 139.679 87.7449C139.348 88.3083 138.807 88.7165 138.175 88.8799Z" fill="#DFDFDF"/>
<path d="M135.568 119.481L79.0163 134.106C78.3848 134.268 77.7148 134.173 77.1533 133.841C76.5919 133.508 76.1851 132.966 76.0223 132.333C75.8594 131.7 75.954 131.028 76.2851 130.465C76.6162 129.901 77.1568 129.493 77.788 129.329L134.339 114.705C134.971 114.542 135.641 114.637 136.203 114.969C136.765 115.301 137.172 115.844 137.335 116.477C137.498 117.111 137.403 117.783 137.072 118.346C136.74 118.91 136.199 119.318 135.568 119.481Z" fill="#DFDFDF"/>
<path d="M147.464 125.001L81.0894 142.166C80.7765 142.247 80.4508 142.265 80.1308 142.22C79.8107 142.175 79.5027 142.067 79.2243 141.903C78.9459 141.738 78.7026 141.52 78.5082 141.261C78.3139 141.002 78.1723 140.708 78.0916 140.394C78.0109 140.08 77.9927 139.753 78.0379 139.432C78.0832 139.112 78.1911 138.803 78.3554 138.524C78.5197 138.245 78.7373 138.001 78.9957 137.806C79.254 137.612 79.5481 137.47 79.8611 137.389L146.236 120.225C146.868 120.061 147.538 120.156 148.1 120.489C148.662 120.821 149.069 121.364 149.232 121.997C149.395 122.63 149.3 123.303 148.968 123.866C148.637 124.429 148.096 124.838 147.464 125.001Z" fill="#DFDFDF"/>
<path d="M50.7845 76.8595L30.7716 82.0348C30.4687 82.1128 30.1474 82.0671 29.8781 81.9078C29.6088 81.7485 29.4135 81.4885 29.3351 81.185L24.7412 63.3209C24.6634 63.0173 24.709 62.695 24.8679 62.425C25.0268 62.1549 25.286 61.9591 25.5886 61.8805L45.6016 56.7052C45.9044 56.6272 46.2257 56.6729 46.495 56.8322C46.7643 56.9915 46.9596 57.2515 47.038 57.555L51.632 75.419C51.7097 75.7227 51.6641 76.0449 51.5053 76.315C51.3464 76.585 51.0872 76.7809 50.7845 76.8595Z" fill="#DFDFDF"/>
<path d="M60.0735 112.981L40.0606 118.156C39.7578 118.234 39.4364 118.188 39.1672 118.029C38.8979 117.869 38.7026 117.61 38.6242 117.306L34.0302 99.442C33.9525 99.1383 33.9981 98.8161 34.1569 98.5461C34.3158 98.276 34.575 98.0802 34.8777 98.0016L54.8906 92.8262C55.1934 92.7483 55.5147 92.794 55.784 92.9533C56.0533 93.1126 56.2486 93.3726 56.327 93.6761L60.9209 111.54C60.9987 111.844 60.9531 112.166 60.7942 112.436C60.6354 112.706 60.3762 112.902 60.0735 112.981Z" fill="#DFDFDF"/>
<path d="M69.3617 149.102L49.3487 154.277C49.0459 154.355 48.7245 154.309 48.4553 154.15C48.186 153.991 47.9907 153.731 47.9123 153.427L43.3183 135.563C43.2406 135.259 43.2862 134.937 43.445 134.667C43.6039 134.397 43.8631 134.201 44.1658 134.123L64.1787 128.947C64.4816 128.869 64.8029 128.915 65.0722 129.074C65.3415 129.234 65.5368 129.494 65.6152 129.797L70.2091 147.661C70.2869 147.965 70.2413 148.287 70.0824 148.557C69.9235 148.827 69.6643 149.023 69.3617 149.102Z" fill="#DFDFDF"/>
<path d="M200.907 33.8496H85.4193C81.5037 33.854 77.7497 35.4158 74.9809 38.1923C72.2121 40.9688 70.6547 44.7333 70.6503 48.6599V184.645C70.6547 188.571 72.2121 192.336 74.9809 195.112C77.7497 197.889 81.5037 199.451 85.4193 199.455H200.907C204.822 199.451 208.576 197.889 211.345 195.112C214.114 192.336 215.671 188.571 215.676 184.645V48.6599C215.671 44.7333 214.114 40.9688 211.345 38.1923C208.576 35.4158 204.822 33.854 200.907 33.8496Z" fill="#DFDFDF"/>
<path d="M200.907 38.1128H85.4193C82.6309 38.1159 79.9576 39.2281 77.9859 41.2053C76.0142 43.1825 74.9051 45.8633 74.902 48.6595V184.644C74.9051 187.441 76.0142 190.121 77.9859 192.099C79.9576 194.076 82.6309 195.188 85.4193 195.191H200.907C203.696 195.188 206.369 194.076 208.34 192.099C210.312 190.121 211.421 187.441 211.424 184.644V48.6595C211.421 45.8633 210.312 43.1826 208.34 41.2054C206.369 39.2281 203.696 38.116 200.907 38.1128Z" fill="white"/>
<path d="M213.039 216.001C227.929 216.001 240 203.896 240 188.965C240 174.034 227.929 161.93 213.039 161.93C198.15 161.93 186.079 174.034 186.079 188.965C186.079 203.896 198.15 216.001 213.039 216.001Z" fill="#5272FF"/>
<path d="M225.934 185.438H216.556V176.035C216.556 175.099 216.186 174.202 215.526 173.541C214.867 172.88 213.972 172.508 213.04 172.508C212.107 172.508 211.213 172.88 210.553 173.541C209.894 174.202 209.523 175.099 209.523 176.035V185.438H200.146C199.213 185.438 198.319 185.81 197.659 186.471C197 187.132 196.629 188.029 196.629 188.965C196.629 189.9 197 190.797 197.659 191.458C198.319 192.12 199.213 192.491 200.146 192.491H209.523V201.895C209.523 202.83 209.894 203.727 210.553 204.388C211.213 205.049 212.107 205.421 213.04 205.421C213.972 205.421 214.867 205.049 215.526 204.388C216.186 203.727 216.556 202.83 216.556 201.895V192.491H225.934C226.866 192.491 227.761 192.12 228.42 191.458C229.08 190.797 229.45 189.9 229.45 188.965C229.45 188.029 229.08 187.132 228.42 186.471C227.761 185.81 226.866 185.438 225.934 185.438Z" fill="white"/>
<path d="M183.526 112.836H125.125C124.802 112.837 124.481 112.773 124.183 112.649C123.884 112.526 123.613 112.344 123.384 112.115C123.155 111.886 122.974 111.614 122.85 111.315C122.726 111.015 122.663 110.694 122.663 110.37C122.663 110.046 122.726 109.725 122.85 109.426C122.974 109.126 123.155 108.854 123.384 108.625C123.613 108.396 123.884 108.215 124.183 108.091C124.481 107.967 124.802 107.903 125.125 107.904H183.526C184.178 107.905 184.803 108.165 185.263 108.627C185.724 109.09 185.983 109.716 185.983 110.37C185.983 111.024 185.724 111.651 185.263 112.113C184.803 112.576 184.178 112.836 183.526 112.836Z" fill="#DFDFDF"/>
<path d="M193.671 121.161H125.124C124.801 121.161 124.481 121.098 124.182 120.974C123.884 120.85 123.612 120.669 123.383 120.44C123.155 120.211 122.973 119.939 122.85 119.639C122.726 119.34 122.662 119.019 122.662 118.695C122.662 118.371 122.726 118.05 122.85 117.75C122.973 117.451 123.155 117.179 123.383 116.95C123.612 116.721 123.884 116.539 124.182 116.415C124.481 116.292 124.801 116.228 125.124 116.229H193.671C194.323 116.229 194.948 116.488 195.41 116.951C195.871 117.413 196.13 118.041 196.13 118.695C196.13 119.349 195.871 119.976 195.41 120.439C194.948 120.901 194.323 121.161 193.671 121.161Z" fill="#DFDFDF"/>
<path d="M183.526 150.139H125.125C124.802 150.139 124.481 150.076 124.183 149.952C123.884 149.828 123.613 149.647 123.384 149.418C123.155 149.189 122.974 148.917 122.85 148.617C122.726 148.318 122.663 147.997 122.663 147.673C122.663 147.349 122.726 147.028 122.85 146.728C122.974 146.429 123.155 146.157 123.384 145.928C123.613 145.699 123.884 145.517 124.183 145.393C124.481 145.27 124.802 145.206 125.125 145.207H183.526C184.178 145.207 184.804 145.466 185.265 145.929C185.726 146.391 185.985 147.019 185.985 147.673C185.985 148.327 185.726 148.954 185.265 149.417C184.804 149.879 184.178 150.139 183.526 150.139Z" fill="#DFDFDF"/>
<path d="M193.671 158.464H125.124C124.801 158.464 124.481 158.401 124.182 158.277C123.884 158.153 123.612 157.972 123.383 157.743C123.155 157.513 122.973 157.241 122.85 156.942C122.726 156.643 122.662 156.322 122.662 155.998C122.662 155.673 122.726 155.353 122.85 155.053C122.973 154.754 123.155 154.482 123.383 154.253C123.612 154.024 123.884 153.842 124.182 153.718C124.481 153.594 124.801 153.531 125.124 153.531H193.671C193.994 153.531 194.314 153.594 194.613 153.718C194.912 153.842 195.183 154.024 195.412 154.253C195.64 154.482 195.822 154.754 195.946 155.053C196.069 155.353 196.133 155.673 196.133 155.998C196.133 156.322 196.069 156.643 195.946 156.942C195.822 157.241 195.64 157.513 195.412 157.743C195.183 157.972 194.912 158.153 194.613 158.277C194.314 158.401 193.994 158.464 193.671 158.464Z" fill="#DFDFDF"/>
<path d="M112.042 124.939H91.3748C91.0621 124.938 90.7624 124.814 90.5413 124.592C90.3202 124.37 90.1958 124.07 90.1955 123.756V105.308C90.1958 104.994 90.3202 104.693 90.5413 104.472C90.7624 104.25 91.0621 104.125 91.3748 104.125H112.042C112.355 104.125 112.655 104.25 112.876 104.472C113.097 104.693 113.221 104.994 113.222 105.308V123.756C113.221 124.07 113.097 124.37 112.876 124.592C112.655 124.814 112.355 124.938 112.042 124.939Z" fill="#DFDFDF"/>
<path d="M112.042 162.241H91.3748C91.0621 162.241 90.7624 162.116 90.5413 161.895C90.3202 161.673 90.1958 161.372 90.1955 161.059V142.61C90.1958 142.297 90.3202 141.996 90.5413 141.774C90.7624 141.553 91.0621 141.428 91.3748 141.428H112.042C112.355 141.428 112.655 141.553 112.876 141.774C113.097 141.996 113.221 142.297 113.222 142.61V161.059C113.221 161.372 113.097 161.673 112.876 161.895C112.655 162.116 112.355 162.241 112.042 162.241Z" fill="#DFDFDF"/>
<path d="M183.591 71.3116H140.534C139.881 71.3116 139.256 71.0517 138.795 70.5892C138.333 70.1267 138.074 69.4993 138.074 68.8452C138.074 68.1911 138.333 67.5638 138.795 67.1013C139.256 66.6387 139.881 66.3789 140.534 66.3789H183.591C184.243 66.3789 184.868 66.6387 185.33 67.1013C185.791 67.5638 186.05 68.1911 186.05 68.8452C186.05 69.4993 185.791 70.1267 185.33 70.5892C184.868 71.0517 184.243 71.3116 183.591 71.3116Z" fill="#DFDFDF"/>
<path d="M193.736 79.6338H140.534C140.211 79.6338 139.891 79.57 139.592 79.4461C139.294 79.3221 139.023 79.1404 138.795 78.9114C138.566 78.6824 138.385 78.4105 138.261 78.1113C138.138 77.8121 138.074 77.4914 138.074 77.1675C138.074 76.8436 138.138 76.5229 138.261 76.2237C138.385 75.9244 138.566 75.6525 138.795 75.4235C139.023 75.1945 139.294 75.0128 139.592 74.8889C139.891 74.765 140.211 74.7012 140.534 74.7012H193.736C194.388 74.7012 195.014 74.961 195.475 75.4235C195.936 75.8861 196.195 76.5134 196.195 77.1675C196.195 77.8216 195.936 78.4489 195.475 78.9114C195.014 79.3739 194.388 79.6338 193.736 79.6338Z" fill="#DFDFDF"/>
<path d="M131.005 89.7222H91.31C90.9973 89.7219 90.6976 89.5972 90.4765 89.3755C90.2554 89.1538 90.131 88.8532 90.1307 88.5396V57.4736C90.131 57.1601 90.2554 56.8595 90.4765 56.6378C90.6976 56.4161 90.9973 56.2914 91.31 56.291H131.005C131.317 56.2914 131.617 56.4161 131.838 56.6378C132.059 56.8595 132.184 57.1601 132.184 57.4736V88.5396C132.184 88.8532 132.059 89.1538 131.838 89.3755C131.617 89.5972 131.317 89.7219 131.005 89.7222Z" fill="#5272FF"/>
</g>
<defs>
<clipPath id="clip0_7_2924">
<rect width="240" height="216" fill="white"/>
</clipPath>
</defs>
</svg>
