<svg width="34" height="34" viewBox="0 0 34 34" fill="none" xmlns="http://www.w3.org/2000/svg">
<rect width="34" height="34" rx="8" fill="#5272FF"/>
<path d="M23.3281 11.0946L19.9251 11.0946V10.2474C19.9251 10.0125 19.735 9.82227 19.5002 9.82227C19.2653 9.82227 19.0752 10.0125 19.0752 10.2474V11.0944H15.6751V10.2474C15.6751 10.0125 15.485 9.82227 15.2502 9.82227C15.0153 9.82227 14.8252 10.0125 14.8252 10.2474V11.0944H11.4281C10.9587 11.0944 10.5781 11.4751 10.5781 11.9446V22.5721C10.5781 23.0416 10.9587 23.4223 11.4281 23.4223H23.3281C23.7975 23.4223 24.1781 23.0416 24.1781 22.5721V11.9446C24.1781 11.4753 23.7975 11.0946 23.3281 11.0946ZM23.3281 22.5721H11.4281V11.9446H14.8252V12.3729C14.8252 12.6077 15.0153 12.798 15.2502 12.798C15.485 12.798 15.6751 12.6077 15.6751 12.3729V11.9448H19.0752V12.3731C19.0752 12.6079 19.2653 12.7982 19.5002 12.7982C19.735 12.7982 19.9251 12.6079 19.9251 12.3731V11.9448H23.3281V22.5721ZM20.3531 16.6209H21.2031C21.4377 16.6209 21.6281 16.4304 21.6281 16.1958V15.3456C21.6281 15.1109 21.4377 14.9205 21.2031 14.9205H20.3531C20.1185 14.9205 19.9281 15.1109 19.9281 15.3456V16.1958C19.9281 16.4304 20.1185 16.6209 20.3531 16.6209ZM20.3531 20.0215H21.2031C21.4377 20.0215 21.6281 19.8312 21.6281 19.5964V18.7462C21.6281 18.5115 21.4377 18.3211 21.2031 18.3211H20.3531C20.1185 18.3211 19.9281 18.5115 19.9281 18.7462V19.5964C19.9281 19.8314 20.1185 20.0215 20.3531 20.0215ZM17.8031 18.3211H16.9531C16.7185 18.3211 16.5281 18.5115 16.5281 18.7462V19.5964C16.5281 19.8312 16.7185 20.0215 16.9531 20.0215H17.8031C18.0377 20.0215 18.2281 19.8312 18.2281 19.5964V18.7462C18.2281 18.5117 18.0377 18.3211 17.8031 18.3211ZM17.8031 14.9205H16.9531C16.7185 14.9205 16.5281 15.1109 16.5281 15.3456V16.1958C16.5281 16.4304 16.7185 16.6209 16.9531 16.6209H17.8031C18.0377 16.6209 18.2281 16.4304 18.2281 16.1958V15.3456C18.2281 15.1107 18.0377 14.9205 17.8031 14.9205ZM14.4031 14.9205H13.5531C13.3185 14.9205 13.1281 15.1109 13.1281 15.3456V16.1958C13.1281 16.4304 13.3185 16.6209 13.5531 16.6209H14.4031C14.6377 16.6209 14.8281 16.4304 14.8281 16.1958V15.3456C14.8281 15.1107 14.6377 14.9205 14.4031 14.9205ZM14.4031 18.3211H13.5531C13.3185 18.3211 13.1281 18.5115 13.1281 18.7462V19.5964C13.1281 19.8312 13.3185 20.0215 13.5531 20.0215H14.4031C14.6377 20.0215 14.8281 19.8312 14.8281 19.5964V18.7462C14.8281 18.5117 14.6377 18.3211 14.4031 18.3211Z" fill="white"/>
</svg>
