<svg width="16" height="20" viewBox="0 0 16 20" fill="none" xmlns="http://www.w3.org/2000/svg">
<path d="M16 20H0V0H16V20Z" stroke="#E5E7EB"/>
<path d="M16 18H0V2H16V18Z" stroke="#E5E7EB"/>
<path d="M4.65938 4.025L4.33437 5H2C0.896875 5 0 5.89687 0 7V15C0 16.1031 0.896875 17 2 17H14C15.1031 17 16 16.1031 16 15V7C16 5.89687 15.1031 5 14 5H11.6656L11.3406 4.025C11.1375 3.4125 10.5656 3 9.91875 3H6.08125C5.43438 3 4.8625 3.4125 4.65938 4.025ZM8 8C8.79565 8 9.55871 8.31607 10.1213 8.87868C10.6839 9.44129 11 10.2044 11 11C11 11.7956 10.6839 12.5587 10.1213 13.1213C9.55871 13.6839 8.79565 14 8 14C7.20435 14 6.44129 13.6839 5.87868 13.1213C5.31607 12.5587 5 11.7956 5 11C5 10.2044 5.31607 9.44129 5.87868 8.87868C6.44129 8.31607 7.20435 8 8 8Z" fill="white"/>
</svg>
