<svg width="32" height="32" viewBox="0 0 32 32" fill="none" xmlns="http://www.w3.org/2000/svg">
<rect width="32" height="32" rx="8" fill="#EEF7FF"/>
<path fill-rule="evenodd" clip-rule="evenodd" d="M20.7705 13.8133C21.0458 13.836 21.2511 14.0766 21.2291 14.352C21.2251 14.3973 20.8638 18.8713 20.6558 20.748C20.5265 21.9126 19.7571 22.6213 18.5958 22.6426C17.7071 22.658 16.8498 22.6666 16.0118 22.6666C15.1085 22.6666 14.2278 22.6566 13.3565 22.6386C12.2418 22.6166 11.4705 21.894 11.3445 20.7526C11.1345 18.8593 10.7751 14.3966 10.7718 14.352C10.7491 14.0766 10.9545 13.8353 11.2298 13.8133C11.5011 13.806 11.7465 13.9966 11.7685 14.2713C11.7706 14.3002 11.9175 16.1226 12.0776 17.9258L12.1097 18.2856C12.1904 19.1818 12.2721 20.0431 12.3385 20.6426C12.4098 21.2913 12.7598 21.626 13.3771 21.6386C15.0438 21.674 16.7445 21.676 18.5778 21.6426C19.2338 21.63 19.5885 21.302 19.6618 20.638C19.8685 18.7753 20.2285 14.3166 20.2325 14.2713C20.2545 13.9966 20.4978 13.8046 20.7705 13.8133ZM17.411 9.3335C18.023 9.3335 18.561 9.74616 18.719 10.3375L18.8883 11.1782C18.9431 11.4537 19.1849 11.655 19.4649 11.6594L21.6527 11.6595C21.9287 11.6595 22.1527 11.8835 22.1527 12.1595C22.1527 12.4355 21.9287 12.6595 21.6527 12.6595L19.4845 12.6594C19.4811 12.6595 19.4777 12.6595 19.4743 12.6595L19.4581 12.6588L12.5418 12.6594C12.5364 12.6595 12.5311 12.6595 12.5257 12.6595L12.5154 12.6588L10.3474 12.6595C10.0714 12.6595 9.84741 12.4355 9.84741 12.1595C9.84741 11.8835 10.0714 11.6595 10.3474 11.6595L12.5347 11.6588L12.6021 11.6546C12.853 11.622 13.0614 11.4315 13.1123 11.1782L13.2743 10.3675C13.439 9.74616 13.977 9.3335 14.589 9.3335H17.411ZM17.411 10.3335H14.589C14.429 10.3335 14.2883 10.4408 14.2477 10.5948L14.0923 11.3748C14.0726 11.4736 14.0439 11.5688 14.0071 11.6597H17.9932C17.9563 11.5688 17.9275 11.4736 17.9077 11.3748L17.7457 10.5642C17.7117 10.4408 17.571 10.3335 17.411 10.3335Z" fill="#DC2626"/>
</svg>
