<svg width="13" height="14" viewBox="0 0 13 14" fill="none" xmlns="http://www.w3.org/2000/svg">
<path fill-rule="evenodd" clip-rule="evenodd" d="M10.9231 4.4798C11.1984 4.50247 11.4037 4.74313 11.3817 5.01847C11.3777 5.0638 11.0164 9.5378 10.8084 11.4145C10.6791 12.5791 9.90973 13.2878 8.7484 13.3091C7.85973 13.3245 7.0024 13.3331 6.1644 13.3331C5.26107 13.3331 4.3804 13.3231 3.50907 13.3051C2.3944 13.2831 1.62307 12.5605 1.49707 11.4191C1.28707 9.5258 0.927733 5.06313 0.9244 5.01847C0.901733 4.74313 1.10707 4.5018 1.3824 4.4798C1.65373 4.47247 1.89907 4.66313 1.92107 4.9378C1.92319 4.96674 2.07009 6.78915 2.23017 8.59227L2.26233 8.9521C2.34295 9.84835 2.42468 10.7096 2.49107 11.3091C2.5624 11.9578 2.9124 12.2925 3.52973 12.3051C5.1964 12.3405 6.89707 12.3425 8.7304 12.3091C9.3864 12.2965 9.74107 11.9685 9.8144 11.3045C10.0211 9.4418 10.3811 4.98313 10.3851 4.9378C10.4071 4.66313 10.6504 4.47113 10.9231 4.4798ZM7.5636 0C8.1756 0 8.7136 0.412667 8.8716 1.004L9.04093 1.84467C9.09565 2.12025 9.3375 2.3215 9.61752 2.32593L11.8053 2.326C12.0813 2.326 12.3053 2.55 12.3053 2.826C12.3053 3.102 12.0813 3.326 11.8053 3.326L9.63706 3.3259C9.63369 3.32597 9.63031 3.326 9.62693 3.326L9.61067 3.32533L2.69441 3.32592C2.68904 3.32597 2.68365 3.326 2.67827 3.326L2.668 3.32533L0.5 3.326C0.224 3.326 0 3.102 0 2.826C0 2.55 0.224 2.326 0.5 2.326L2.68733 2.32533L2.75468 2.32107C3.00554 2.28852 3.21402 2.098 3.26493 1.84467L3.42693 1.034C3.5916 0.412667 4.1296 0 4.7416 0H7.5636ZM7.5636 1H4.7416C4.5816 1 4.44093 1.10733 4.40027 1.26133L4.24493 2.04133C4.22519 2.14013 4.19644 2.23534 4.15966 2.32618H8.14574C8.10891 2.23534 8.0801 2.14013 8.06027 2.04133L7.89827 1.23067C7.86427 1.10733 7.7236 1 7.5636 1Z" fill="white"/>
</svg>
