<svg width="32" height="32" viewBox="0 0 32 32" fill="none" xmlns="http://www.w3.org/2000/svg">
<rect width="32" height="32" rx="8" fill="#EEF7FF"/>
<path fill-rule="evenodd" clip-rule="evenodd" d="M21.8337 21.6264C22.1097 21.6264 22.3337 21.8504 22.3337 22.1264C22.3337 22.4024 22.1097 22.6264 21.8337 22.6264H16.9984C16.7224 22.6264 16.4984 22.4024 16.4984 22.1264C16.4984 21.8504 16.7224 21.6264 16.9984 21.6264H21.8337ZM18.7442 10.4358C18.7776 10.4618 19.8929 11.3284 19.8929 11.3284C20.2982 11.5698 20.6149 12.0011 20.7349 12.5118C20.8542 13.0171 20.7676 13.5384 20.4896 13.9791C20.4877 13.982 20.4859 13.9849 20.4794 13.9936L20.4744 14.0003C20.4293 14.0597 20.2331 14.3078 19.2431 15.5482C19.2339 15.5644 19.2235 15.5796 19.2121 15.5944C19.1954 15.6162 19.1772 15.6363 19.1578 15.6545C19.0903 15.7396 19.019 15.8289 18.944 15.9228L18.792 16.1131C18.4785 16.5058 18.1066 16.9714 17.6654 17.5236L17.439 17.8071C16.5872 18.8732 15.4963 20.2382 14.0989 21.9864C13.7929 22.3678 13.3342 22.5898 12.8416 22.5958L10.4156 22.6264H10.4089C10.1776 22.6264 9.97622 22.4678 9.92222 22.2418L9.37622 19.9278C9.26356 19.4484 9.37556 18.9538 9.68289 18.5698L15.9629 10.7151C15.9656 10.7124 15.9676 10.7091 15.9702 10.7064C16.6589 9.8831 17.9042 9.76176 18.7442 10.4358ZM15.2627 13.1913L10.4636 19.1944C10.3496 19.3371 10.3076 19.5211 10.3496 19.6978L10.8036 21.6211L12.8296 21.5958C13.0222 21.5938 13.2002 21.5078 13.3182 21.3611C13.9259 20.6008 14.6896 19.6452 15.4748 18.6627L15.7526 18.315L16.0309 17.9668C16.7673 17.0453 17.4947 16.1347 18.1035 15.3726L15.2627 13.1913ZM16.7402 11.3444L15.8874 12.41L18.7279 14.5906C19.2746 13.9058 19.6343 13.4548 19.6676 13.4118C19.7769 13.2344 19.8196 12.9838 19.7622 12.7424C19.7036 12.4951 19.5496 12.2851 19.3276 12.1511C19.2802 12.1184 18.1569 11.2464 18.1222 11.2191C17.6996 10.8804 17.0829 10.9391 16.7402 11.3444Z" fill="#4F46E5"/>
</svg>
