<svg width="36" height="36" viewBox="0 0 36 36" fill="none" xmlns="http://www.w3.org/2000/svg">
<rect width="36" height="36" rx="8" fill="#5272FF"/>
<path fill-rule="evenodd" clip-rule="evenodd" d="M16.6533 10.7124C15.5718 10.7903 14.5246 11.1257 13.599 11.6906C12.6735 12.2555 11.8964 13.0336 11.3327 13.9599C10.7691 14.8862 10.4351 15.9338 10.3586 17.0155C10.2822 18.0971 10.4655 19.1813 10.8933 20.1777C11.3211 21.1741 11.981 22.0537 12.8178 22.7432C13.6547 23.4326 14.6444 23.912 15.7042 24.1412C16.764 24.3704 17.8633 24.3429 18.9103 24.0609C19.9573 23.7788 20.9217 23.2505 21.723 22.52L24.8466 25.2245C25.0076 25.359 25.2149 25.4249 25.424 25.4081C25.6331 25.3912 25.8272 25.2929 25.9645 25.1343C26.1018 24.9757 26.1713 24.7695 26.1581 24.5602C26.1449 24.3509 26.05 24.1551 25.8938 24.015L22.7701 21.3105C23.4866 20.2537 23.891 19.0166 23.9371 17.7406C23.9833 16.4647 23.6692 15.2015 23.031 14.0957C22.3928 12.9899 21.4561 12.0861 20.3282 11.4878C19.2003 10.8895 17.9268 10.6208 16.6533 10.7124ZM11.9545 17.8679C11.8556 16.4924 12.3071 15.1338 13.2099 14.0912C14.1126 13.0486 15.3925 12.4072 16.7681 12.3083C18.1437 12.2094 19.5022 12.6609 20.5448 13.5637C21.5875 14.4664 22.2288 15.7463 22.3277 17.1219C22.4266 18.4975 21.9751 19.856 21.0724 20.8986C20.1696 21.9413 18.8897 22.5826 17.5141 22.6815C16.1386 22.7805 14.78 22.3289 13.7374 21.4262C12.6948 20.5234 12.0534 19.2435 11.9545 17.8679Z" fill="white"/>
</svg>
