<svg width="32" height="32" viewBox="0 0 32 32" fill="none" xmlns="http://www.w3.org/2000/svg">
<path d="M16 0C24.8366 0 32 7.16344 32 16C32 24.8366 24.8366 32 16 32C7.16344 32 0 24.8366 0 16C0 7.16344 7.16344 0 16 0Z" fill="#5272FF"/>
<path d="M16 0C24.8366 0 32 7.16344 32 16C32 24.8366 24.8366 32 16 32C7.16344 32 0 24.8366 0 16C0 7.16344 7.16344 0 16 0Z" stroke="#E5E7EB"/>
<path d="M24 26H8V6H24V26Z" stroke="#E5E7EB"/>
<path d="M24 24H8V8H24V24Z" stroke="#E5E7EB"/>
<path d="M12.6594 10.025L12.3344 11H10C8.89688 11 8 11.8969 8 13V21C8 22.1031 8.89688 23 10 23H22C23.1031 23 24 22.1031 24 21V13C24 11.8969 23.1031 11 22 11H19.6656L19.3406 10.025C19.1375 9.4125 18.5656 9 17.9187 9H14.0813C13.4344 9 12.8625 9.4125 12.6594 10.025ZM16 14C16.7956 14 17.5587 14.3161 18.1213 14.8787C18.6839 15.4413 19 16.2044 19 17C19 17.7956 18.6839 18.5587 18.1213 19.1213C17.5587 19.6839 16.7956 20 16 20C15.2044 20 14.4413 19.6839 13.8787 19.1213C13.3161 18.5587 13 17.7956 13 17C13 16.2044 13.3161 15.4413 13.8787 14.8787C14.4413 14.3161 15.2044 14 16 14Z" fill="white"/>
</svg>
