<svg width="16" height="16" viewBox="0 0 16 16" fill="none" xmlns="http://www.w3.org/2000/svg">
<path d="M16 16H0V0H16V16Z" stroke="#E5E7EB"/>
<g clip-path="url(#clip0_7_3186)">
<path d="M9 3.41558V11C9 11.5531 8.55313 12 8 12C7.44688 12 7 11.5531 7 11V3.41558L4.70625 5.70933C4.31563 6.09995 3.68125 6.09995 3.29063 5.70933C2.9 5.3187 2.9 4.68433 3.29063 4.2937L7.29063 0.293701C7.68125 -0.0969238 8.31563 -0.0969238 8.70625 0.293701L12.7063 4.2937C13.0969 4.68433 13.0969 5.3187 12.7063 5.70933C12.3156 6.09995 11.6812 6.09995 11.2906 5.70933L9 3.41558ZM2 11H6C6 12.1031 6.89687 13 8 13C9.10312 13 10 12.1031 10 11H14C15.1031 11 16 11.8968 16 13V14C16 15.1031 15.1031 16 14 16H2C0.896875 16 0 15.1031 0 14V13C0 11.8968 0.896875 11 2 11ZM13.5 14.25C13.6989 14.25 13.8897 14.1709 14.0303 14.0303C14.171 13.8896 14.25 13.6989 14.25 13.5C14.25 13.301 14.171 13.1103 14.0303 12.9696C13.8897 12.829 13.6989 12.75 13.5 12.75C13.3011 12.75 13.1103 12.829 12.9697 12.9696C12.829 13.1103 12.75 13.301 12.75 13.5C12.75 13.6989 12.829 13.8896 12.9697 14.0303C13.1103 14.1709 13.3011 14.25 13.5 14.25Z" fill="white"/>
</g>
<defs>
<clipPath id="clip0_7_3186">
<path d="M0 0H16V16H0V0Z" fill="white"/>
</clipPath>
</defs>
</svg>
